<svg aria-hidden="true" style="position: absolute; width: 0; height: 0; overflow: hidden;" version="1.1" xmlns="http://www.w3.org/2000/svg" xmlns:xlink="http://www.w3.org/1999/xlink">
<defs>
<symbol id="icon-icon-1" viewBox="0 0 19 20">
<path d="M3.203 7.891l4.688 4.727-2.344 2.344-4.727-4.687 2.383-2.383zM10.273 0.82l4.687 4.727-2.344 2.344-4.727-4.688 2.383-2.383zM4.375 6.719l2.344-2.344 11.797 11.797-2.344 2.344-11.797-11.797zM0.82 17.5h10v1.68h-10v-1.68z"></path>
</symbol>
<symbol id="icon-icon-2" viewBox="0 0 18 20">
<path d="M10.848 12.848v1.805h-6.445v-1.805h6.445zM15.402 17.402v-10.055h-12.805v10.055h12.805zM15.402 2.75c0.487 0 0.917 0.186 1.289 0.559s0.559 0.802 0.559 1.289v12.805c0 0.487-0.186 0.917-0.559 1.289s-0.802 0.559-1.289 0.559h-12.805c-0.516 0-0.96-0.172-1.332-0.516-0.344-0.372-0.516-0.816-0.516-1.332v-12.805c0-0.487 0.172-0.917 0.516-1.289 0.372-0.372 0.816-0.559 1.332-0.559h0.902v-1.848h1.848v1.848h7.305v-1.848h1.848v1.848h0.902zM13.598 9.152v1.848h-9.195v-1.848h9.195z"></path>
</symbol>
<symbol id="icon-icon-3" viewBox="0 0 20 20">
<path d="M10.525 5.942v4.297l3.533 2.148-0.716 1.241-4.345-2.626v-5.061h1.528zM19.167 8.090h-6.923l2.817-2.865c-1.4-1.4-3.087-2.101-5.061-2.101-1.942-0.032-3.613 0.637-5.013 2.005-0.573 0.573-1.066 1.353-1.48 2.339-0.414 0.955-0.621 1.83-0.621 2.626s0.207 1.687 0.621 2.674c0.414 0.955 0.907 1.719 1.48 2.292s1.353 1.066 2.339 1.48c0.987 0.414 1.878 0.621 2.674 0.621s1.687-0.207 2.674-0.621c1.019-0.414 1.814-0.907 2.387-1.48 1.369-1.369 2.053-3.024 2.053-4.965h2.053c0 2.515-0.891 4.647-2.674 6.398-1.782 1.782-3.947 2.674-6.493 2.674s-4.711-0.891-6.493-2.674c-1.782-1.751-2.674-3.867-2.674-6.35 0-2.514 0.891-4.663 2.674-6.445 0.732-0.732 1.719-1.353 2.96-1.862 1.273-0.541 2.435-0.812 3.485-0.812s2.196 0.271 3.438 0.812c1.273 0.509 2.276 1.13 3.008 1.862l2.769-2.865v7.257z"></path>
</symbol>
<symbol id="icon-icon-4" viewBox="0 0 30 20">
<path d="M1.25 0.833h27.5v3.079h-27.5v-3.079zM1.25 11.504v-3.008h27.5v3.008h-27.5zM1.25 19.167v-3.079h27.5v3.079h-27.5z"></path>
</symbol>
<symbol id="icon-icon" viewBox="0 0 20 20">
<path d="M4.801 15.199c1.461 1.432 3.194 2.148 5.199 2.148s3.724-0.716 5.156-2.148c1.461-1.461 2.192-3.194 2.192-5.199s-0.731-3.724-2.192-5.156c-1.432-1.461-3.151-2.191-5.156-2.191s-3.738 0.73-5.199 2.191c-1.432 1.432-2.148 3.151-2.148 5.156s0.716 3.738 2.148 5.199zM3.512 3.555c1.805-1.805 3.967-2.707 6.488-2.707s4.669 0.902 6.445 2.707c1.805 1.776 2.707 3.924 2.707 6.445s-0.902 4.684-2.707 6.488c-1.776 1.776-3.924 2.664-6.445 2.664s-4.684-0.888-6.488-2.664c-1.776-1.805-2.664-3.967-2.664-6.488s0.888-4.669 2.664-6.445zM12.063 4.973c0.745 0.315 1.346 0.702 1.805 1.16s0.845 1.060 1.16 1.805c0.315 0.745 0.473 1.432 0.473 2.063s-0.158 1.318-0.473 2.063c-0.286 0.745-0.659 1.346-1.117 1.805-1.060 1.088-2.349 1.633-3.867 1.633s-2.822-0.544-3.91-1.633l3.867-3.867v-5.5c0.63 0 1.318 0.158 2.063 0.473z"></path>
</symbol>
<symbol id="icon-clear" viewBox="0 0 24 24">
<path d="M18.984 6.422l-5.578 5.578 5.578 5.578-1.406 1.406-5.578-5.578-5.578 5.578-1.406-1.406 5.578-5.578-5.578-5.578 1.406-1.406 5.578 5.578 5.578-5.578z"></path>
</symbol>
</defs>
</svg>
