<svg aria-hidden="true" style="position: absolute; width: 0; height: 0; overflow: hidden;" version="1.1" xmlns="http://www.w3.org/2000/svg" xmlns:xlink="http://www.w3.org/1999/xlink">
<defs>
<symbol id="icon-icon-1" viewBox="0 0 19 20">
<path d="M3.203 7.891l4.688 4.727-2.344 2.344-4.727-4.687 2.383-2.383zM10.273 0.82l4.687 4.727-2.344 2.344-4.727-4.688 2.383-2.383zM4.375 6.719l2.344-2.344 11.797 11.797-2.344 2.344-11.797-11.797zM0.82 17.5h10v1.68h-10v-1.68z"></path>
</symbol>
<symbol id="icon-icon-2" viewBox="0 0 18 20">
<path d="M10.848 12.848v1.805h-6.445v-1.805h6.445zM15.402 17.402v-10.055h-12.805v10.055h12.805zM15.402 2.75c0.487 0 0.917 0.186 1.289 0.559s0.559 0.802 0.559 1.289v12.805c0 0.487-0.186 0.917-0.559 1.289s-0.802 0.559-1.289 0.559h-12.805c-0.516 0-0.96-0.172-1.332-0.516-0.344-0.372-0.516-0.816-0.516-1.332v-12.805c0-0.487 0.172-0.917 0.516-1.289 0.372-0.372 0.816-0.559 1.332-0.559h0.902v-1.848h1.848v1.848h7.305v-1.848h1.848v1.848h0.902zM13.598 9.152v1.848h-9.195v-1.848h9.195z"></path>
</symbol>
<symbol id="icon-icon-3" viewBox="0 0 20 20">
<path d="M10.525 5.942v4.297l3.533 2.148-0.716 1.241-4.345-2.626v-5.061h1.528zM19.167 8.090h-6.923l2.817-2.865c-1.4-1.4-3.087-2.101-5.061-2.101-1.942-0.032-3.613 0.637-5.013 2.005-0.573 0.573-1.066 1.353-1.48 2.339-0.414 0.955-0.621 1.83-0.621 2.626s0.207 1.687 0.621 2.674c0.414 0.955 0.907 1.719 1.48 2.292s1.353 1.066 2.339 1.48c0.987 0.414 1.878 0.621 2.674 0.621s1.687-0.207 2.674-0.621c1.019-0.414 1.814-0.907 2.387-1.48 1.369-1.369 2.053-3.024 2.053-4.965h2.053c0 2.515-0.891 4.647-2.674 6.398-1.782 1.782-3.947 2.674-6.493 2.674s-4.711-0.891-6.493-2.674c-1.782-1.751-2.674-3.867-2.674-6.35 0-2.514 0.891-4.663 2.674-6.445 0.732-0.732 1.719-1.353 2.96-1.862 1.273-0.541 2.435-0.812 3.485-0.812s2.196 0.271 3.438 0.812c1.273 0.509 2.276 1.13 3.008 1.862l2.769-2.865v7.257z"></path>
</symbol>
<symbol id="icon-icon-4" viewBox="0 0 30 20">
<path d="M1.25 0.833h27.5v3.079h-27.5v-3.079zM1.25 11.504v-3.008h27.5v3.008h-27.5zM1.25 19.167v-3.079h27.5v3.079h-27.5z"></path>
</symbol>
<symbol id="icon-icon" viewBox="0 0 20 20">
<path d="M4.801 15.199c1.461 1.432 3.194 2.148 5.199 2.148s3.724-0.716 5.156-2.148c1.461-1.461 2.192-3.194 2.192-5.199s-0.731-3.724-2.192-5.156c-1.432-1.461-3.151-2.191-5.156-2.191s-3.738 0.73-5.199 2.191c-1.432 1.432-2.148 3.151-2.148 5.156s0.716 3.738 2.148 5.199zM3.512 3.555c1.805-1.805 3.967-2.707 6.488-2.707s4.669 0.902 6.445 2.707c1.805 1.776 2.707 3.924 2.707 6.445s-0.902 4.684-2.707 6.488c-1.776 1.776-3.924 2.664-6.445 2.664s-4.684-0.888-6.488-2.664c-1.776-1.805-2.664-3.967-2.664-6.488s0.888-4.669 2.664-6.445zM12.063 4.973c0.745 0.315 1.346 0.702 1.805 1.16s0.845 1.060 1.16 1.805c0.315 0.745 0.473 1.432 0.473 2.063s-0.158 1.318-0.473 2.063c-0.286 0.745-0.659 1.346-1.117 1.805-1.060 1.088-2.349 1.633-3.867 1.633s-2.822-0.544-3.91-1.633l3.867-3.867v-5.5c0.63 0 1.318 0.158 2.063 0.473z"></path>
</symbol>
<symbol id="icon-clear" viewBox="0 0 24 24">
<path d="M18.984 6.422l-5.578 5.578 5.578 5.578-1.406 1.406-5.578-5.578-5.578 5.578-1.406-1.406 5.578-5.578-5.578-5.578 1.406-1.406 5.578 5.578 5.578-5.578z"></path>
</symbol>
<symbol id="icon-Bell-Icon" viewBox="0 0 17 20">
<path d="M12.266 14.313v-5.79c0-1.236-0.347-2.262-1.040-3.076-0.694-0.844-1.628-1.266-2.804-1.266s-2.111 0.422-2.804 1.266c-0.694 0.814-1.040 1.839-1.040 3.076v5.79h7.689zM14.211 13.318l1.945 1.945v0.95h-15.469v-0.95l1.945-1.945v-4.794c0-1.508 0.377-2.819 1.131-3.935 0.784-1.116 1.854-1.839 3.211-2.171v-0.678c0-0.392 0.136-0.724 0.407-0.995 0.271-0.302 0.618-0.452 1.040-0.452s0.769 0.151 1.040 0.452c0.271 0.271 0.407 0.603 0.407 0.995v0.678c1.357 0.332 2.412 1.055 3.166 2.171 0.784 1.116 1.176 2.427 1.176 3.935v4.794zM9.778 18.565c-0.392 0.362-0.844 0.543-1.357 0.543s-0.965-0.181-1.357-0.543c-0.392-0.392-0.588-0.844-0.588-1.357h3.89c0 0.513-0.196 0.965-0.588 1.357z"></path>
</symbol>
<symbol id="icon-search" viewBox="0 0 16 16">
<path d="M15.56 15.56c-0.587 0.587-1.538 0.587-2.125 0l-2.652-2.652c-1.090 0.699-2.379 1.116-3.771 1.116-3.872 0-7.012-3.139-7.012-7.012s3.14-7.012 7.012-7.012c3.873 0 7.012 3.139 7.012 7.012 0 1.391-0.417 2.68-1.116 3.771l2.652 2.652c0.587 0.587 0.587 1.538 0 2.125zM7.012 2.003c-2.766 0-5.009 2.242-5.009 5.009s2.243 5.009 5.009 5.009c2.766 0 5.009-2.242 5.009-5.009s-2.242-5.009-5.009-5.009z"></path>
</symbol>
<symbol id="icon-cheveron-right" viewBox="0 0 20 20">
<path d="M12.95 10.707l0.707-0.707-5.657-5.657-1.414 1.414 4.242 4.243-4.242 4.243 1.414 1.414 4.95-4.95z"></path>
</symbol>
<symbol id="icon-message" viewBox="0 0 28 28">
<path d="M21.7 8.887v-2.587h-15.4v2.587h15.4zM21.7 12.737v-2.587h-15.4v2.587h15.4zM21.7 16.587v-2.587h-15.4v2.587h15.4zM24.287 1.187c0.682 0 1.263 0.261 1.745 0.782 0.521 0.481 0.782 1.063 0.782 1.745v23.1l-5.113-5.113h-17.987c-0.682 0-1.283-0.261-1.805-0.782-0.481-0.521-0.722-1.123-0.722-1.805v-15.4c0-0.682 0.241-1.263 0.722-1.745 0.521-0.521 1.123-0.782 1.805-0.782h20.573z"></path>
</symbol>
<symbol id="icon-views" viewBox="0 0 44 28">
<path d="M18.133 10.133c1.089-1.089 2.378-1.633 3.867-1.633s2.779 0.544 3.867 1.633c1.089 1.089 1.633 2.378 1.633 3.867s-0.544 2.779-1.633 3.867c-1.089 1.089-2.378 1.633-3.867 1.633s-2.779-0.544-3.867-1.633c-1.089-1.089-1.633-2.378-1.633-3.867s0.544-2.779 1.633-3.867zM15.469 20.531c1.833 1.776 4.010 2.664 6.531 2.664s4.669-0.888 6.445-2.664c1.833-1.833 2.75-4.010 2.75-6.531s-0.917-4.669-2.75-6.445c-1.776-1.833-3.925-2.75-6.445-2.75s-4.698 0.917-6.531 2.75c-1.776 1.776-2.664 3.924-2.664 6.445s0.888 4.698 2.664 6.531zM9.711 4.031c3.667-2.521 7.763-3.781 12.289-3.781s8.622 1.26 12.289 3.781c3.667 2.521 6.302 5.844 7.906 9.969-1.604 4.125-4.24 7.448-7.906 9.969s-7.763 3.781-12.289 3.781c-4.526 0-8.622-1.26-12.289-3.781s-6.302-5.844-7.906-9.969c1.604-4.125 4.24-7.448 7.906-9.969z"></path>
</symbol>
<symbol id="icon-icon" viewBox="0 0 15 16">
<path d="M5.063 9.977c0 0.11 0.055 0.165 0.165 0.165h8.173v1.423h-8.471c-0.375 0-0.706-0.143-0.993-0.43-0.265-0.287-0.397-0.618-0.397-0.993 0-0.221 0.055-0.441 0.165-0.662l0.96-1.754-2.548-5.36h-1.423v-1.39h2.316c0.441 0.926 0.882 1.864 1.324 2.813 0.11 0.199 0.364 0.728 0.761 1.588 0.397 0.838 0.706 1.489 0.926 1.952h4.963c1.654-3 2.559-4.654 2.713-4.963l1.224 0.695-2.713 4.93c-0.265 0.485-0.673 0.728-1.224 0.728h-5.261l-0.629 1.158-0.033 0.099zM11.018 12.69c0.287-0.287 0.618-0.43 0.993-0.43s0.695 0.143 0.96 0.43c0.287 0.287 0.43 0.618 0.43 0.993s-0.143 0.706-0.43 0.993c-0.265 0.265-0.584 0.397-0.96 0.397s-0.706-0.132-0.993-0.397c-0.287-0.287-0.43-0.618-0.43-0.993s0.143-0.706 0.43-0.993zM3.938 12.69c0.287-0.287 0.618-0.43 0.993-0.43s0.706 0.143 0.993 0.43c0.287 0.287 0.43 0.618 0.43 0.993s-0.143 0.706-0.43 0.993c-0.287 0.265-0.618 0.397-0.993 0.397s-0.706-0.132-0.993-0.397c-0.265-0.287-0.397-0.618-0.397-0.993s0.132-0.706 0.397-0.993zM7.776 5.907v-2.118h-2.118v-1.423h2.118v-2.118h1.39v2.118h2.118v1.423h-2.118v2.118h-1.39z"></path>
</symbol>
<symbol id="icon-calendar" viewBox="0 0 15 16">
<path d="M12.738 13.738v-8.227h-10.477v8.227h10.477zM10.488 0.238h1.512v1.512h0.738c0.398 0 0.75 0.152 1.055 0.457s0.457 0.656 0.457 1.055v10.477c0 0.398-0.152 0.75-0.457 1.055s-0.656 0.457-1.055 0.457h-10.477c-0.422 0-0.785-0.141-1.090-0.422-0.281-0.305-0.422-0.668-0.422-1.090v-10.477c0-0.398 0.141-0.75 0.422-1.055 0.305-0.305 0.668-0.457 1.090-0.457h0.738v-1.512h1.512v1.512h5.977v-1.512zM11.262 8.5v3.762h-3.762v-3.762h3.762z"></path>
</symbol>
<symbol id="icon-list" viewBox="0 0 18 16">
<path d="M5.216 1.553h12.938v1.817h-12.938v-1.817zM5.216 8.909v-1.817h12.938v1.817h-12.938zM5.216 14.447v-1.817h12.938v1.817h-12.938zM1.452 12.587c0.288-0.289 0.62-0.433 0.995-0.433s0.692 0.144 0.952 0.433c0.288 0.26 0.433 0.577 0.433 0.952s-0.144 0.707-0.433 0.995c-0.26 0.26-0.577 0.389-0.952 0.389s-0.707-0.13-0.995-0.389c-0.26-0.288-0.389-0.62-0.389-0.995s0.13-0.692 0.389-0.952zM1.452 1.466c0.288-0.26 0.62-0.389 0.995-0.389s0.692 0.13 0.952 0.389c0.288 0.26 0.433 0.591 0.433 0.995s-0.144 0.736-0.433 0.995c-0.26 0.26-0.577 0.389-0.952 0.389s-0.707-0.13-0.995-0.389c-0.26-0.26-0.389-0.591-0.389-0.995s0.13-0.736 0.389-0.995zM1.452 7.005c0.288-0.26 0.62-0.389 0.995-0.389s0.692 0.13 0.952 0.389c0.288 0.26 0.433 0.591 0.433 0.995s-0.144 0.736-0.433 0.995c-0.26 0.26-0.577 0.389-0.952 0.389s-0.707-0.13-0.995-0.389c-0.26-0.26-0.389-0.591-0.389-0.995s0.13-0.736 0.389-0.995z"></path>
</symbol>
<symbol id="icon-arrow_forward" viewBox="0 0 24 24">
<path d="M12 3.984l8.016 8.016-8.016 8.016-1.406-1.406 5.578-5.625h-12.188v-1.969h12.188l-5.578-5.625z"></path>
</symbol>
<symbol id="icon-keyboard_arrow_up" viewBox="0 0 24 24">
<path d="M7.406 15.422l-1.406-1.406 6-6 6 6-1.406 1.406-4.594-4.594z"></path>
</symbol>
<symbol id="icon-keyboard_arrow_down" viewBox="0 0 24 24">
<path d="M7.406 8.578l4.594 4.594 4.594-4.594 1.406 1.406-6 6-6-6z"></path>
</symbol>
<symbol id="icon-chevron-left" viewBox="0 0 24 24">
<path d="M15.707 17.293l-5.293-5.293 5.293-5.293c0.391-0.391 0.391-1.024 0-1.414s-1.024-0.391-1.414 0l-6 6c-0.391 0.391-0.391 1.024 0 1.414l6 6c0.391 0.391 1.024 0.391 1.414 0s0.391-1.024 0-1.414z"></path>
</symbol>
<symbol id="icon-dots-three-horizontal" viewBox="0 0 20 20">
<path d="M10.001 7.8c-1.215 0-2.201 0.985-2.201 2.2s0.986 2.2 2.201 2.2c1.215 0 2.199-0.985 2.199-2.2s-0.984-2.2-2.199-2.2zM3.001 7.8c-1.215 0-2.201 0.985-2.201 2.2s0.986 2.2 2.201 2.2c1.215 0 2.199-0.986 2.199-2.2s-0.984-2.2-2.199-2.2zM17.001 7.8c-1.215 0-2.201 0.985-2.201 2.2s0.986 2.2 2.201 2.2c1.215 0 2.199-0.985 2.199-2.2s-0.984-2.2-2.199-2.2z"></path>
</symbol>
<symbol id="icon-arrow-right" viewBox="0 0 24 24">
<path d="M11.293 5.707l5.293 5.293h-11.586c-0.552 0-1 0.448-1 1s0.448 1 1 1h11.586l-5.293 5.293c-0.391 0.391-0.391 1.024 0 1.414s1.024 0.391 1.414 0l7-7c0.092-0.092 0.166-0.202 0.217-0.324 0.101-0.245 0.101-0.521 0-0.766-0.049-0.118-0.121-0.228-0.217-0.324l-7-7c-0.391-0.391-1.024-0.391-1.414 0s-0.391 1.024 0 1.414z"></path>
</symbol>
<symbol id="icon-arrow-left" viewBox="0 0 24 24">
<path d="M12.707 18.293l-5.293-5.293h11.586c0.552 0 1-0.448 1-1s-0.448-1-1-1h-11.586l5.293-5.293c0.391-0.391 0.391-1.024 0-1.414s-1.024-0.391-1.414 0l-7 7c-0.096 0.096-0.168 0.206-0.217 0.324-0.051 0.122-0.076 0.253-0.076 0.383 0 0.256 0.098 0.512 0.293 0.707l7 7c0.391 0.391 1.024 0.391 1.414 0s0.391-1.024 0-1.414z"></path>
</symbol>
<symbol id="icon-Icon" viewBox="0 0 32 32">
<path d="M21.143 10.857v-10.286h3.455v3.455h6.83v3.375h-6.83v3.455h-3.455zM31.429 17.688h-17.116v-3.375h17.116v3.375zM7.402 10.857h3.455v10.286h-3.455v-3.455h-6.83v-3.375h6.83v-3.455zM17.688 31.429h-3.375v-10.286h3.375v3.455h13.741v3.375h-13.741v3.455zM0.571 4.027h17.116v3.375h-17.116v-3.375zM0.571 24.598h10.286v3.375h-10.286v-3.375z"></path>
</symbol>
<symbol id="icon-info" viewBox="0 0 32 32">
<path d="M14.523 11.5v-3.023h2.953v3.023h-2.953zM7.492 24.508c2.391 2.344 5.227 3.516 8.508 3.516s6.094-1.172 8.438-3.516c2.391-2.391 3.586-5.227 3.586-8.508s-1.195-6.094-3.586-8.438c-2.344-2.391-5.156-3.586-8.438-3.586s-6.117 1.195-8.508 3.586c-2.344 2.344-3.516 5.156-3.516 8.438s1.172 6.117 3.516 8.508zM5.383 5.453c2.953-2.953 6.492-4.43 10.617-4.43s7.641 1.477 10.547 4.43c2.953 2.906 4.43 6.422 4.43 10.547s-1.477 7.664-4.43 10.617c-2.906 2.906-6.422 4.359-10.547 4.359s-7.664-1.453-10.617-4.359c-2.906-2.953-4.359-6.492-4.359-10.617s1.453-7.641 4.359-10.547zM14.523 23.523v-9h2.953v9h-2.953z"></path>
</symbol>
</defs>
</svg>
